<svg xmlns="http://www.w3.org/2000/svg" viewBox="0 0 259.999 113.387">
  <g id="Grupo_1802" data-name="Grupo 1802" transform="translate(-857.08 -1692.892)">
    <g id="Logo">
      <path id="Caminho_1" data-name="Caminho 1" d="M899.505,1732.185l-8.539-20.844-.1.227,8.557,20.616Z" fill="#fdd941"/>
      <path id="Caminho_2" data-name="Caminho 2" d="M882.424,1732.308h.111l6.44-15.987Z" fill="#fdd941"/>
      <path id="Caminho_3" data-name="Caminho 3" d="M884.627,1693.533l-27.547,66.848H871.5l5.877-14.881-5.877,14.881h0l10.928-27.779,6.551-16.508,1.88-4.823.015.044.1-.235,8.539,21.522h-.078l11.165,27.779h14.625l-27.551-66.848Z" fill="#fdd941"/>
      <path id="Caminho_4" data-name="Caminho 4" d="M920.706,1707.462h19.56v52.918h14.14v-52.918h19.562v-13.469H920.706Z" fill="#fdd941"/>
      <path id="Caminho_5" data-name="Caminho 5" d="M1024.079,1732.007c0,10.52-5.236,15.922-13.864,15.922s-13.87-5.592-13.87-16.4v-37.54H982.2v37.917c0,19.533,10.562,29.482,27.825,29.482s28.19-9.858,28.19-29.954v-37.445h-14.139Z" fill="#fdd941"/>
      <path id="Caminho_6" data-name="Caminho 6" d="M1083.009,1692.892c-19.833,0-34.251,15.445-34.251,34.3v.184c0,18.854,14.232,34.109,34.07,34.109s34.251-15.438,34.251-34.293V1727C1117.08,1708.143,1102.847,1692.892,1083.009,1692.892Zm19.287,34.483c0,11.374-7.9,20.66-19.287,20.66s-19.468-9.477-19.468-20.844V1727c0-11.365,7.9-20.651,19.287-20.651s19.468,9.47,19.468,20.844Z" fill="#fdd941"/>
    </g>
    <g id="_.agency" data-name=" .agency" style="isolation: isolate">
      <g id="Grupo_2032" data-name="Grupo 2032" style="isolation: isolate">
        <path id="Caminho_2087" data-name="Caminho 2087" d="M995.19,1799.17a1.26,1.26,0,1,1,2.52,0,1.26,1.26,0,1,1-2.52,0Z" fill="#fdd941"/>
        <path id="Caminho_2088" data-name="Caminho 2088" d="M1015.739,1790.41v9.93H1014.3v-2.791c-.99,1.8-2.91,2.91-5.64,2.91-3.51,0-5.639-1.8-5.639-4.469,0-2.371,1.5-4.381,5.849-4.381h5.369v-1.259c0-2.911-1.59-4.469-4.649-4.469a8.127,8.127,0,0,0-5.4,1.978l-.75-1.08a9.556,9.556,0,0,1,6.27-2.218C1013.58,1784.561,1015.739,1786.539,1015.739,1790.41Zm-1.5,5.309v-2.94H1008.9c-3.24,0-4.379,1.35-4.379,3.151,0,2.039,1.589,3.3,4.349,3.3A5.365,5.365,0,0,0,1014.239,1795.719Z" fill="#fdd941"/>
        <path id="Caminho_2089" data-name="Caminho 2089" d="M1037.549,1784.68v13.98c0,5.25-2.55,7.619-7.59,7.619a10.341,10.341,0,0,1-7.169-2.49l.81-1.141a9.266,9.266,0,0,0,6.33,2.282c4.17,0,6.119-1.92,6.119-6.09V1796.2a7.229,7.229,0,0,1-6.51,3.571,7.607,7.607,0,1,1,0-15.209,7.182,7.182,0,0,1,6.57,3.66v-3.541Zm-1.47,7.47a6.406,6.406,0,1,0-6.42,6.27A6.081,6.081,0,0,0,1036.079,1792.15Z" fill="#fdd941"/>
        <path id="Caminho_2090" data-name="Caminho 2090" d="M1058.639,1792.869h-13.47a6.7,6.7,0,0,0,11.64,4.051l.87.99a7.5,7.5,0,0,1-5.91,2.549,7.687,7.687,0,0,1-8.07-7.949c0-4.651,3.21-7.949,7.5-7.949s7.47,3.24,7.47,7.888C1058.669,1792.57,1058.639,1792.719,1058.639,1792.869Zm-13.44-1.17h12a6,6,0,0,0-12,0Z" fill="#fdd941"/>
        <path id="Caminho_2091" data-name="Caminho 2091" d="M1078.828,1791.189v9.151h-1.5v-9.029c0-3.541-1.89-5.4-5.069-5.4-3.691,0-5.941,2.369-5.941,6.09v8.34h-1.5v-15.66h1.441v3.39c1.05-2.189,3.24-3.509,6.21-3.509C1076.278,1784.561,1078.828,1786.811,1078.828,1791.189Z" fill="#fdd941"/>
        <path id="Caminho_2092" data-name="Caminho 2092" d="M1084.828,1792.51a7.632,7.632,0,0,1,7.92-7.949,6.871,6.871,0,0,1,5.94,2.878l-1.11.811a5.716,5.716,0,0,0-4.83-2.34,6.6,6.6,0,0,0,0,13.2,5.718,5.718,0,0,0,4.83-2.339l1.11.81a6.945,6.945,0,0,1-5.94,2.879A7.649,7.649,0,0,1,1084.828,1792.51Z" fill="#fdd941"/>
        <path id="Caminho_2093" data-name="Caminho 2093" d="M1116.988,1784.68l-8.04,17.789c-1.26,2.881-2.82,3.81-4.889,3.81a5,5,0,0,1-3.63-1.41l.75-1.14a3.813,3.813,0,0,0,2.91,1.23c1.439,0,2.489-.66,3.449-2.789l.84-1.891-7.05-15.6h1.59l6.27,14.009,6.27-14.009Z" fill="#fdd941"/>
      </g>
    </g>
  </g>
</svg>
